<svg id="Camada_1" data-name="Camada 1" xmlns="http://www.w3.org/2000/svg" viewBox="0 0 962.69 619.07"><defs><style>.cls-1{fill:none;}.cls-1,.cls-2,.cls-3{stroke:#000;stroke-miterlimit:10;}.cls-1,.cls-3{stroke-width:0.25px;}</style></defs><title>Sem título-1</title><path class="cls-1" d="M478.93,848.62V840c.16.4.36.79.49,1.2a9.93,9.93,0,0,0,9.43,7H965.5c6.26,0,9.53-2.5,11.17-8.55q24.48-90.21,49-180.41L1060.48,531c0-.12.09-.24.31-.83.35,1.09.6,1.82.8,2.55q11.17,42.66,22.36,85.3,15.61,59.61,31.21,119.24c7.56,28.88,14.83,57.83,22.86,86.58,3.11,11.13,9.74,20.12,21.65,23.74,1.35.41,2.73.72,4.1,1" transform="translate(-478.45 -230.02)"/><path class="cls-2" d="M1440.64,587.88c-.26,1.78-.46,3.58-.77,5.34a8.13,8.13,0,0,1-16.16-1.28c0-5.11.57-10.22.31-15.29-.82-16.15-4.8-31.37-14.4-44.71-9.2-12.77-21.8-20.7-36.72-25.08-17.12-5-34.41-6.45-51.84-1.6-18.17,5-31.78,16.26-42.29,31.59-7.42,10.81-11.89,22.82-15.18,35.47-10.75,41.41-21.82,82.74-32.76,124.11q-17.2,65-34.4,129.94a25.89,25.89,0,0,1-7.31,11.88c-5.55,5.48-12,9.15-19.92,10a2.34,2.34,0,0,0-.71.3h-4.71c-1.37-.34-2.76-.63-4.1-1-11.91-3.62-18.55-12.61-21.66-23.74-8-28.74-15.29-57.7-22.85-86.58Q1099.55,677.62,1084,618q-11.18-42.66-22.36-85.29c-.2-.72-.46-1.44-.8-2.56-.22.59-.27.71-.31.84l-34.83,128.2q-24.53,90.23-49,180.44c-1.65,6-4.91,8.55-11.18,8.55H488.88a10,10,0,0,1-9.44-7c-.13-.41-.33-.8-.49-1.2v-3.14c1.83-6.66,3.7-13.31,5.47-20Q514,705.92,543.61,595q28.9-108.5,57.83-217Q619.74,309.34,638,240.7c1.19-4.46,4.23-7.34,8.26-7.88,4.47-.57,8,1.28,10.38,5.45Q683.36,285,710,331.72a3,3,0,0,0,3,1.76q59.69-.06,119.37,0a3,3,0,0,0,3.06-1.71q26.19-46.89,52.4-93.76c2-3.59,4.38-6.41,8.46-7.49h2.75c2,1.08,4.14,1.9,5.83,3.32a8.32,8.32,0,0,1,2.38,4.15q34.1,127.71,68,255.46,11.67,43.83,23.38,87.67c.89,3.3,1,6.45-1,9.4a9.85,9.85,0,0,1-8.16,4.35c-.65,0-1.31,0-2,0H707.39c-7.12,0-10.22-2.43-11.89-9.36q-3.84-15.91-7.62-31.81a7.92,7.92,0,0,1,5.62-9.7l.3-.07a8.51,8.51,0,0,1,10.46,6.18c1.48,6.83,3,13.62,4.58,20.45.59,2.59,1.24,5.18,1.86,7.8H981Q938.39,418.25,895.7,258c-.55.92-.94,1.53-1.3,2.15l-47.13,84.17a10.16,10.16,0,0,1-9.57,5.63q-64.79,0-129.58,0a10.52,10.52,0,0,1-9.92-5.73Q674.76,303,651.24,262c-.35-.61-.72-1.19-1.32-2.15Q573.6,546.06,497.45,831.66H961.82Q966,816.29,970.17,801l44.51-163.93L1051.1,503c1.75-6.45,6.73-9.72,12.53-8.09,3.9,1.1,6.06,3.85,7,7.68q4.35,16.8,8.75,33.58,17,64.73,34,129.46,20.07,76.6,40.14,153.18a22.63,22.63,0,0,0,6.39,10.63,8.9,8.9,0,0,0,9,2.36,18.17,18.17,0,0,0,10.75-8,17.24,17.24,0,0,0,1.62-4.79q19.77-74.64,39.52-149.29c9.73-36.76,19.35-73.54,29.26-110.25,4.55-16.82,13.18-31.53,25-44.34,14.84-16.1,33.14-25.91,54.94-28.26,26.52-2.86,51.67,1.72,74.07,17,17,11.61,27.11,28.17,32.52,47.79a107.59,107.59,0,0,1,3.63,22.41,7.75,7.75,0,0,0,.32,1.26Z" transform="translate(-478.45 -230.02)"/><path class="cls-3" d="M749.87,540.43a22.32,22.32,0,1,1,22.34-22.3v0a22.27,22.27,0,0,1-22.31,22.28Z" transform="translate(-478.45 -230.02)"/><path class="cls-3" d="M870.23,540.43A22.08,22.08,0,0,1,848,517.93a22.32,22.32,0,1,1,22.21,22.5Z" transform="translate(-478.45 -230.02)"/></svg>